<?xml version="1.0" encoding="UTF-8" standalone="no"?>
<svg
   xmlns:dc="http://purl.org/dc/elements/1.1/"
   xmlns:cc="http://creativecommons.org/ns#"
   xmlns:rdf="http://www.w3.org/1999/02/22-rdf-syntax-ns#"
   xmlns:svg="http://www.w3.org/2000/svg"
   xmlns="http://www.w3.org/2000/svg"
   xmlns:sodipodi="http://sodipodi.sourceforge.net/DTD/sodipodi-0.dtd"
   xmlns:inkscape="http://www.inkscape.org/namespaces/inkscape"
   xml:space="preserve"
   viewBox="0 0 400.00001 399.99999"
   y="0px"
   x="0px"
   id="trifoglio"
   version="1.1"
   inkscape:version="0.91 r13725"
   sodipodi:docname="logo.svg"
   width="400"
   height="400"><sodipodi:namedview
   pagecolor="#ffffff"
   bordercolor="#666666"
   borderopacity="1"
   objecttolerance="10"
   gridtolerance="10"
   guidetolerance="10"
   inkscape:pageopacity="0"
   inkscape:pageshadow="2"
   inkscape:window-width="1600"
   inkscape:window-height="838"
   id="namedview46"
   showgrid="false"
   inkscape:zoom="1.356577"
   inkscape:cx="105.16755"
   inkscape:cy="187.28708"
   inkscape:window-x="-8"
   inkscape:window-y="-8"
   inkscape:window-maximized="1"
   inkscape:current-layer="trifoglio" /><metadata
   id="metadata87"><rdf:RDF><cc:Work
       rdf:about=""><dc:format>image/svg+xml</dc:format><dc:type
         rdf:resource="http://purl.org/dc/dcmitype/StillImage" /><dc:title></dc:title></cc:Work></rdf:RDF></metadata><defs
   id="defs85" />
<style
   id="style3"
   type="text/css">
	.st0{fill:#247149;}
	.st1{fill:#F6E500;}
	.st2{fill:#D71F16;}
	.st3{fill:#FFFFFF;}
</style>





<g
   id="g3415"
   transform="matrix(1.788764,0,0,1.788764,-225.1892,-525.79099)"><g
     id="g5">
	<circle
   class="st0"
   cx="237.60001"
   cy="407.79999"
   r="96.800003"
   id="circle7"
   style="fill:#247149" />
	<path
   class="st1"
   d="m 237.6,322.9 c 22.7,0 44,8.8 60,24.9 16,16 24.9,37.3 24.9,60 0,22.7 -8.8,44 -24.9,60 -16,16 -37.3,24.9 -60,24.9 -22.7,0 -44,-8.8 -60,-24.9 -16,-16 -24.9,-37.3 -24.9,-60 0,-22.7 8.8,-44 24.9,-60 16.1,-16 37.4,-24.9 60,-24.9 m 0,-3.4 c -48.8,0 -88.3,39.5 -88.3,88.3 0,48.8 39.5,88.3 88.3,88.3 48.8,0 88.3,-39.5 88.3,-88.3 0,-48.8 -39.5,-88.3 -88.3,-88.3 l 0,0 z"
   id="path9"
   inkscape:connector-curvature="0"
   style="fill:#f6e500" />
	<path
   class="st2"
   d="m 305.7,438.3 c 4.2,-9.3 6.5,-19.6 6.5,-30.5 0,-41.2 -33.4,-74.6 -74.6,-74.6 -41.2,0 -74.6,33.4 -74.6,74.6 0,10.9 2.3,21.2 6.5,30.5 l 136.2,0 z"
   id="path11"
   inkscape:connector-curvature="0"
   style="fill:#d71f16" />
	<path
   class="st3"
   d="m 237.6,336.7 c 19,0 36.9,7.4 50.3,20.8 13.4,13.4 20.8,31.3 20.8,50.3 0,9.4 -1.8,18.5 -5.3,27.1 l -131.6,0 c -3.5,-8.6 -5.3,-17.7 -5.3,-27.1 0,-19 7.4,-36.9 20.8,-50.3 13.4,-13.4 31.3,-20.8 50.3,-20.8 m 0,-3.4 c -41.2,0 -74.6,33.4 -74.6,74.6 0,10.9 2.3,21.2 6.5,30.5 l 136.1,0 c 4.2,-9.3 6.5,-19.6 6.5,-30.5 0.1,-41.3 -33.3,-74.6 -74.5,-74.6 l 0,0 z"
   id="path13"
   inkscape:connector-curvature="0"
   style="fill:#ffffff" />
</g><g
     id="g15">
	<path
   class="st1"
   d="m 226.3,383 c -7.3,0 -11.8,5.9 -14.2,11.9 -1.8,4.4 -2.7,8 -2.7,11.4 l 0.1,0.7 -2.4,0 -0.1,-0.7 c 0,-5.4 2,-10.5 3.8,-15.1 1.7,-4.4 3.4,-8.8 3.4,-13.9 0,-9.5 -8.1,-20.1 -8.1,-20.1 0,0 -8.1,10.6 -8.1,20.1 0,5.1 1.7,9.5 3.4,13.9 1.8,4.6 3.8,9.9 3.8,15.1 l -0.2,0.7 -2.4,0 0.1,-0.7 c 0,-3.4 -0.9,-6.9 -2.7,-11.4 -2.4,-6 -6.9,-11.9 -14.2,-11.9 -7.2,0 -11.4,5.5 -11.4,10.9 0,10.7 11.9,11.3 11.9,11.3 0,0 1.2,-6 6.4,-6 5.2,0 6.2,5.7 6.2,7 0,0 0,0.3 0,0.7 l -2.7,0 c -0.7,0 -1.2,0.5 -1.2,1.2 0,0.7 0.5,1.2 1.2,1.2 l 2.7,0 c -0.1,1.7 -1,4.5 -3.3,6.4 -3.2,2.6 -6.2,2.4 -6.2,2.4 0,0 1.6,2 4.7,2 3.2,0 7.2,-2.8 7.8,-9.7 l 0.2,-1 2.6,0 -0.1,0.9 c 0,0 0,3.8 -2.1,7.3 -1.9,3.1 -3.8,4.3 -3.8,4.3 0,0 0.7,1.3 3.3,4 2.2,2.3 4.2,3.1 4.2,3.1 0,0 2,-0.7 4.2,-3.1 2.5,-2.6 3.3,-4 3.3,-4 0,0 -1.9,-1.2 -3.8,-4.3 -2.1,-3.5 -2.1,-7.3 -2.1,-7.3 l -0.1,-0.9 2.6,0 0.2,1 c 0.6,7 4.6,9.7 7.8,9.7 3.2,0 4.7,-2 4.7,-2 0,0 -3,0.2 -6.2,-2.4 -2.3,-1.8 -3.1,-4.7 -3.3,-6.4 l 2.7,0 c 0.7,0 1.2,-0.5 1.2,-1.2 0,-0.7 -0.5,-1.2 -1.2,-1.2 l -2.7,0 c 0,-0.4 0,-0.7 0,-0.7 0,-1.3 1,-7 6.2,-7 5.2,0 6.4,6 6.4,6 0,0 11.9,-0.7 11.9,-11.3 -0.3,-5.4 -4.5,-10.9 -11.7,-10.9 z"
   id="path17"
   inkscape:connector-curvature="0"
   style="fill:#f6e500" />
	<path
   class="st0"
   d="m 236.5,384.7 c -2.6,-2.7 -6.2,-4.2 -10.2,-4.2 -4.1,0 -7.8,1.6 -10.8,4.6 0.7,-2.4 1.1,-5.1 1.1,-7.9 0,-10.2 -8.3,-21.1 -8.6,-21.6 l -1.9,-2.5 -1.9,2.5 c -0.4,0.5 -8.6,11.4 -8.6,21.6 0,2.8 0.5,5.5 1.1,7.9 -3.1,-3 -6.7,-4.6 -10.8,-4.6 -4,0 -7.6,1.5 -10.2,4.2 -2.3,2.4 -3.7,5.8 -3.7,9.1 0,5.3 2.5,9.4 7.3,11.8 3.4,1.7 6.8,1.9 6.9,1.9 l 2.1,0.1 0.4,-2.1 c 0,0 0.2,-1.2 1,-2.3 1,-1.6 2.2,-1.8 3,-1.8 2.1,0 3,1.6 3.4,2.9 -2,0 -3.6,1.6 -3.6,3.6 0,1.8 1.4,3.3 3.1,3.6 -0.4,0.7 -0.9,1.5 -1.6,2.1 -2.2,1.8 -4.3,1.8 -4.5,1.8 -2,0.1 -4.9,0 -4.9,0 0,0 1.2,2.4 2.8,4 0.3,0.3 2.4,2.9 6.6,2.9 0.6,0 1.3,-0.1 1.9,-0.2 l 0.4,0.8 c 0.1,0.3 1,1.8 3.6,4.5 2.5,2.7 4.8,3.6 5.1,3.7 l 0.9,0.3 0.9,-0.3 c 0.3,-0.1 2.5,-1 5.1,-3.7 2.6,-2.7 3.5,-4.2 3.6,-4.5 l 0.4,-0.8 c 0.6,0.2 1.3,0.2 1.9,0.2 4.2,0 6.4,-2.6 6.6,-2.9 1.6,-1.6 2.8,-4 2.8,-4 0,0 -2.9,0.1 -4.9,0 -0.2,0 -2.3,-0.1 -4.5,-1.8 -0.7,-0.6 -1.3,-1.3 -1.6,-2.1 1.8,-0.2 3.2,-1.7 3.2,-3.6 0,-2 -1.6,-3.6 -3.6,-3.6 0.4,-1.3 1.4,-2.9 3.4,-2.9 0.8,0 2,0.2 3,1.8 0.7,1.1 1,2.3 1,2.3 l 0,0 0.4,2.1 2.1,-0.1 c 0.1,0 3.5,-0.2 6.9,-1.9 4.8,-2.4 7.3,-6.5 7.3,-11.8 0.2,-3.3 -1.1,-6.6 -3.4,-9.1 z m -30.4,-27.6 c 0,0 8.1,10.6 8.1,20.1 0,5.1 -1.7,9.5 -3.4,13.9 -1,2.5 -2,5.1 -2.7,7.8 0,0.1 0,0.1 -0.1,0.2 0,0.1 -0.1,0.3 -0.1,0.4 -0.5,1.8 -0.8,3.4 -0.9,5 l -2,0 c -0.1,-1.9 -0.5,-3.8 -1.1,-6 -0.7,-2.6 -1.7,-5.1 -2.6,-7.5 -1.7,-4.4 -3.4,-8.8 -3.4,-13.9 0,-9.3 8.2,-20 8.2,-20 z m -13.4,42.1 c -5.2,0 -6.4,6 -6.4,6 0,0 -11.9,-0.7 -11.9,-11.3 0,-5.4 4.2,-10.9 11.4,-10.9 7.3,0 11.8,5.9 14.2,11.9 0.6,1.5 1.1,3 1.5,4.3 0.5,1.8 0.9,3.6 1,5.3 l -4,0 c -0.4,-2.1 -2,-5.3 -5.8,-5.3 z m 1.4,20.9 c -3.2,0 -4.7,-2 -4.7,-2 0,0 0,0 0.1,0 0.6,0 3.3,-0.1 6.1,-2.4 1.4,-1.1 2.2,-2.6 2.7,-3.9 l 3.4,0 c -1,5.9 -4.6,8.3 -7.6,8.3 z m 16.2,5.8 c -2.2,2.3 -4.2,3.1 -4.2,3.1 0,0 -2,-0.7 -4.2,-3.1 -2.5,-2.6 -3.3,-4 -3.3,-4 0,0 1.9,-1.2 3.8,-4.3 1.3,-2.1 1.8,-4.3 2,-5.7 l 3.3,0 c 0.2,1.4 0.7,3.6 2,5.7 1.9,3.1 3.8,4.3 3.8,4.3 0,0 -0.7,1.3 -3.2,4 z m 12.3,-7.8 c 0.1,0 0.1,0 0.1,0 0,0 -1.6,2 -4.7,2 -2.9,0 -6.6,-2.4 -7.6,-8.3 l 3.4,0 c 0.5,1.4 1.4,2.8 2.7,3.9 2.8,2.3 5.5,2.4 6.1,2.4 z m -5.4,-9.9 c 0,0.7 -0.5,1.2 -1.2,1.2 l -0.3,0 -2.4,0 -3.3,0 -2.6,0 -2.8,0 -2.6,0 -3.3,0 -2.4,0 -0.3,0 c -0.7,0 -1.2,-0.5 -1.2,-1.2 0,-0.7 0.5,-1.2 1.2,-1.2 l 0.3,0 2.4,0 3.7,0 2.5,0 2.1,0 2.5,0 3.7,0 2.4,0 0.3,0 c 0.8,0 1.3,0.5 1.3,1.2 z m 8.6,-3 c 0,0 -1.2,-6 -6.4,-6 -3.9,0 -5.4,3.2 -6,5.4 l -3.9,0 c 0.1,-1.5 0.4,-2.9 0.7,-4.3 0.4,-1.7 1,-3.4 1.8,-5.4 2.4,-6 6.9,-11.9 14.2,-11.9 7.2,0 11.4,5.5 11.4,10.9 0.1,10.6 -11.8,11.3 -11.8,11.3 z"
   id="path19"
   inkscape:connector-curvature="0"
   style="fill:#247149" />
</g><g
     id="g21">
	<path
   class="st0"
   d="m 298.5,383.6 c -5.9,-2.9 -11.8,4.5 -16.7,5.1 -2.7,0.3 -3.4,-0.8 -1.7,-3.1 2.8,-3.7 11.8,-6.1 11.8,-12.6 0,-4.8 -7.6,-10.8 -20.6,-10.8 l 0,0 -0.3,0 0,0 c -13,0 -20.6,6 -20.6,10.8 0,6.5 9,8.9 11.8,12.6 1.7,2.2 1,3.4 -1.7,3.1 -4.9,-0.6 -10.7,-8 -16.7,-5.1 -4.3,2.1 -6.4,11.5 -0.6,23.2 l 0.1,0.2 c 5.7,11.7 14.4,15.9 18.7,13.8 6.6,-3.2 2.9,-14.5 7.5,-17.4 0.2,0.4 0.5,1.3 0.6,3.1 0.1,2.6 0.5,6.7 0.2,15.5 -0.1,2.4 -1.8,5.3 -4.1,8.2 -0.4,0.5 -0.3,1.2 0.3,1.2 1.2,0 3.4,-0.1 4.2,-0.3 0.8,-0.2 1.4,-0.6 1.8,-1.5 1,-2.3 1.4,-3.2 1.4,-9.2 0,-5 -0.6,-14 -0.8,-16.8 4.1,3.2 0.7,14.1 7.2,17.2 4.3,2.1 13,-2.1 18.7,-13.8 l 0.1,-0.2 c 5.8,-11.6 3.7,-21.1 -0.6,-23.2 z"
   id="path23"
   inkscape:connector-curvature="0"
   style="fill:#247149" />
	<g
   id="g25">
		<path
   class="st1"
   d="m 253.3,372.9 c 0,3.5 4.4,5.9 7.8,7.3 5.6,2.3 6.4,4.3 6.4,4.3 0,0 1.1,-3.3 1.4,-6.9 0.4,-3.5 0.3,-6.7 0.3,-6.7 0,0 -2.5,-2.7 -7.5,-2.7 -4.1,0.1 -8.4,1.7 -8.4,4.7 z"
   id="path27"
   inkscape:connector-curvature="0"
   style="fill:#f6e500" />
		<path
   class="st1"
   d="m 289.2,372.9 c 0,3.5 -4.4,5.9 -7.8,7.3 -5.6,2.3 -6.4,4.3 -6.4,4.3 0,0 -1.1,-3.3 -1.4,-6.9 -0.4,-3.5 -0.3,-6.7 -0.3,-6.7 0,0 2.5,-2.7 7.5,-2.7 4.1,0.1 8.4,1.7 8.4,4.7 z"
   id="path29"
   inkscape:connector-curvature="0"
   style="fill:#f6e500" />
	</g>
	<g
   id="g31">
		<path
   class="st1"
   d="m 260.8,418.4 c 3.1,-1.5 3.4,-6.5 3.2,-10.3 -0.4,-6 1,-7.6 1,-7.6 0,0 -3.5,0.5 -6.8,1.7 -3.3,1.2 -6.1,2.7 -6.1,2.7 0,0 -1.4,3.5 0.8,7.9 1.9,3.8 5.2,6.9 7.9,5.6 z"
   id="path33"
   inkscape:connector-curvature="0"
   style="fill:#f6e500" />
		<path
   class="st1"
   d="m 245.1,386.2 c 3.1,-1.5 7.2,1.3 10,3.8 4.5,4 6.6,3.9 6.6,3.9 0,0 -2.5,2.4 -5.5,4.3 -3,1.9 -5.9,3.2 -5.9,3.2 0,0 -3.6,-1.1 -5.7,-5.5 -1.8,-3.8 -2.2,-8.4 0.5,-9.7 z"
   id="path35"
   inkscape:connector-curvature="0"
   style="fill:#f6e500" />
	</g>
	<g
   id="g37">
		<path
   class="st1"
   d="m 281.7,418.4 c -3.1,-1.5 -3.4,-6.5 -3.2,-10.3 0.4,-6 -1,-7.6 -1,-7.6 0,0 3.5,0.5 6.8,1.7 3.3,1.2 6.1,2.7 6.1,2.7 0,0 1.4,3.5 -0.8,7.9 -1.9,3.8 -5.2,6.9 -7.9,5.6 z"
   id="path39"
   inkscape:connector-curvature="0"
   style="fill:#f6e500" />
		<path
   class="st1"
   d="m 297.4,386.2 c -3.1,-1.5 -7.2,1.3 -10,3.8 -4.5,4 -6.6,3.9 -6.6,3.9 0,0 2.5,2.4 5.5,4.3 3,1.9 5.9,3.2 5.9,3.2 0,0 3.6,-1.1 5.7,-5.5 1.8,-3.8 2.2,-8.4 -0.5,-9.7 z"
   id="path41"
   inkscape:connector-curvature="0"
   style="fill:#f6e500" />
	</g>
</g><g
     id="g43">
	<path
   class="st3"
   d="m 184.5,445.9 c 1.7,-1.8 4,-2.7 6.6,-2.7 3.6,0 6.2,1.2 7.9,3.6 0.9,1.3 1.4,2.7 1.5,4 l -4.5,0 c -0.3,-1 -0.7,-1.8 -1.1,-2.3 -0.8,-0.9 -2,-1.4 -3.6,-1.4 -1.6,0 -2.9,0.7 -3.8,2 -0.9,1.3 -1.4,3.2 -1.4,5.6 0,2.4 0.5,4.2 1.5,5.4 1,1.2 2.2,1.8 3.7,1.8 1.5,0 2.7,-0.5 3.5,-1.6 0.4,-0.6 0.8,-1.4 1.1,-2.5 l 4.5,0 c -0.4,2.4 -1.4,4.3 -3,5.7 -1.6,1.5 -3.6,2.2 -6.1,2.2 -3.1,0 -5.5,-1 -7.3,-3 -1.8,-2 -2.6,-4.8 -2.6,-8.2 0.1,-3.6 1.1,-6.5 3.1,-8.6 z"
   id="path45"
   inkscape:connector-curvature="0"
   style="fill:#ffffff" />
	<path
   class="st3"
   d="m 200.8,461.5 4.4,0 0,4.4 -4.4,0 0,-4.4 z"
   id="path47"
   inkscape:connector-curvature="0"
   style="fill:#ffffff" />
	<path
   class="st3"
   d="m 207.4,444.3 4.7,0 8.6,15.1 0,-15.1 4.2,0 0,21.6 -4.5,0 -8.8,-15.3 0,15.3 -4.2,0 0,-21.6 z"
   id="path49"
   inkscape:connector-curvature="0"
   style="fill:#ffffff" />
	<path
   class="st3"
   d="m 227.1,461.5 4.4,0 0,4.4 -4.4,0 0,-4.4 z"
   id="path51"
   inkscape:connector-curvature="0"
   style="fill:#ffffff" />
	<path
   class="st3"
   d="m 247.3,450.9 c -0.3,-1.5 -1.2,-2.5 -2.5,-3.1 -0.7,-0.3 -1.6,-0.5 -2.5,-0.5 -1.7,0 -3.2,0.7 -4.3,2 -1.1,1.3 -1.7,3.3 -1.7,5.9 0,2.7 0.6,4.5 1.8,5.6 1.2,1.1 2.6,1.7 4.1,1.7 1.5,0 2.8,-0.4 3.7,-1.3 1,-0.9 1.6,-2 1.8,-3.4 l -5,0 0,-3.6 9,0 0,11.6 -3,0 -0.5,-2.7 c -0.9,1 -1.7,1.7 -2.3,2.2 -1.2,0.7 -2.7,1.1 -4.4,1.1 -2.9,0 -5.2,-1 -7,-3 -1.9,-2 -2.9,-4.7 -2.9,-8.2 0,-3.5 1,-6.3 2.9,-8.4 1.9,-2.1 4.5,-3.2 7.6,-3.2 2.7,0 5,0.7 6.6,2.1 1.7,1.4 2.6,3.1 2.9,5.2 l -4.3,0 z"
   id="path53"
   inkscape:connector-curvature="0"
   style="fill:#ffffff" />
	<path
   class="st3"
   d="m 253.4,461.5 4.4,0 0,4.4 -4.4,0 0,-4.4 z"
   id="path55"
   inkscape:connector-curvature="0"
   style="fill:#ffffff" />
	<path
   class="st3"
   d="m 275.3,448.1 -11.4,0 0,4.6 10.5,0 0,3.8 -10.5,0 0,5.6 12,0 0,3.9 -16.4,0 0,-21.6 15.9,0 0,3.7 z"
   id="path57"
   inkscape:connector-curvature="0"
   style="fill:#ffffff" />
	<path
   class="st3"
   d="m 277.4,461.5 4.4,0 0,4.4 -4.4,0 0,-4.4 z"
   id="path59"
   inkscape:connector-curvature="0"
   style="fill:#ffffff" />
	<path
   class="st3"
   d="m 287.9,465.9 -4.5,0 0,-21.6 4.5,0 0,21.6 z"
   id="path61"
   inkscape:connector-curvature="0"
   style="fill:#ffffff" />
	<path
   class="st3"
   d="m 289.5,461.5 4.4,0 0,4.4 -4.4,0 0,-4.4 z"
   id="path63"
   inkscape:connector-curvature="0"
   style="fill:#ffffff" />
</g><g
     id="g65">
	<path
   class="st0"
   d="m 200.6,300.7 6.2,-2 0.5,1.6 -4.3,1.4 0.7,2.1 3.9,-1.2 0.5,1.6 -3.9,1.2 1,3.3 -2,0.6 -2.6,-8.6 z"
   id="path67"
   inkscape:connector-curvature="0"
   style="fill:#247149" />
	<path
   class="st0"
   d="m 211.5,297.6 2,-0.5 2,8.9 -2,0.5 -2,-8.9 z"
   id="path69"
   inkscape:connector-curvature="0"
   style="fill:#247149" />
	<path
   class="st0"
   d="m 225.7,304.3 -1.8,-2.4 -0.2,0 -1.9,0.2 0.3,2.6 -2,0.3 -1.2,-9 3.9,-0.5 c 1.2,-0.2 2.1,0 2.8,0.5 0.7,0.5 1.1,1.2 1.3,2.2 0.1,0.7 0,1.3 -0.2,1.8 -0.2,0.5 -0.6,1 -1.1,1.3 l 2.3,2.7 -2.2,0.3 z m -4.1,-3.8 1.9,-0.2 c 0.6,-0.1 1,-0.3 1.3,-0.6 0.3,-0.3 0.4,-0.7 0.3,-1.2 -0.1,-0.5 -0.3,-0.9 -0.6,-1.1 -0.3,-0.2 -0.8,-0.3 -1.4,-0.2 l -1.9,0.2 0.4,3.1 z"
   id="path71"
   inkscape:connector-curvature="0"
   style="fill:#247149" />
	<path
   class="st0"
   d="m 232,294.6 6.9,-0.1 0,1.7 -4.9,0.1 0,2 4.4,-0.1 0,1.7 -4.4,0.1 0,2 5,-0.1 0,1.7 -7.1,0.1 0.1,-9.1 z"
   id="path73"
   inkscape:connector-curvature="0"
   style="fill:#247149" />
	<path
   class="st0"
   d="m 250.7,295.3 1.9,0.2 -0.9,9.1 -1.9,-0.2 -3.8,-6.2 -0.6,5.8 -2,-0.2 0.9,-9.1 1.9,0.2 3.8,6.3 0.7,-5.9 z"
   id="path75"
   inkscape:connector-curvature="0"
   style="fill:#247149" />
	<path
   class="st0"
   d="m 258,296.3 7.5,1.6 -0.3,1.3 -6.2,4.8 5,1.1 -0.4,1.7 -7.7,-1.7 0.3,-1.4 6.2,-4.8 -4.8,-1 0.4,-1.6 z"
   id="path77"
   inkscape:connector-curvature="0"
   style="fill:#247149" />
	<path
   class="st0"
   d="m 270.5,299.3 6.6,2.2 -0.5,1.6 -4.6,-1.6 -0.6,1.9 4.2,1.4 -0.5,1.6 -4.2,-1.4 -0.6,1.9 4.8,1.6 -0.5,1.6 -6.7,-2.2 2.6,-8.6 z"
   id="path79"
   inkscape:connector-curvature="0"
   style="fill:#247149" />
</g><path
     class="st0"
     d="M 280.4,307.3 279,310 c 38.1,16.1 64.9,53.9 64.9,97.9 0,58.6 -47.7,106.2 -106.2,106.2 -58.5,0 -106.2,-47.7 -106.2,-106.2 0,-44.6 27.6,-82.8 66.6,-98.6 l -1.4,-2.7 c -40,16.3 -68.2,55.5 -68.2,101.2 0,60.2 49,109.2 109.2,109.2 60.2,0 109.2,-49 109.2,-109.2 0,-45.1 -27.5,-83.9 -66.5,-100.5 z"
     id="path81"
     inkscape:connector-curvature="0"
     style="fill:#247149" /></g>
</svg>